<?xml version="1.0" encoding="utf-8"?>
<!-- Generator: Adobe Illustrator 24.0.2, SVG Export Plug-In . SVG Version: 6.00 Build 0)  -->
<svg version="1.1" id="Layer_1" xmlns="http://www.w3.org/2000/svg" xmlns:xlink="http://www.w3.org/1999/xlink" x="0px" y="0px"
	 viewBox="0 0 343 74.2" style="enable-background:new 0 0 343 74.2;" xml:space="preserve">
<g>
	<g>
		<path d="M15.2,33.1H1.8c0.5-5.6,2.5-8.8,6.8-10.8c3.3-1.6,7.3-2.3,12.2-2.3c8.5,0,14.4,2.4,16.6,6.7c1.1,2.3,1.5,4.4,1.5,9v14.8
			c0,5,0.4,6.6,2.2,9.4H27.6c-0.4-1.9-0.4-2.4-0.6-4.1c-3.6,3.6-6.8,4.9-12.1,4.9c-9,0-14.8-4.3-14.8-11c0-5.9,4.3-9.9,13-12.1
			c3.4-0.8,5.9-1.3,12.5-2.2v-0.6c0-4.1-1.2-5.3-5-5.3C17.1,29.6,15.5,30.5,15.2,33.1z M25.5,43.2c-9.5,1-11.7,1.9-11.7,4.7
			c0,2.1,2,3.4,5.1,3.4c4.7,0,6.6-2.1,6.6-7L25.5,43.2L25.5,43.2z"/>
		<path d="M38.1,21H53l7.9,25.3L69.4,21h14.4l-15.8,39H53.6L38.1,21z"/>
		<path d="M123.9,43.5H95.8c0.1,4.8,2.9,7.5,8,7.5c3.5,0,5.6-1.1,7.1-3.5l12.6,0.4c-2.4,8.3-9.6,13-20.2,13
			c-13,0-21.3-7.9-21.3-20.3c0-12.3,8.7-20.6,21.6-20.6c12.6,0,20.4,8.1,20.4,20.8C123.9,41.4,123.9,42.3,123.9,43.5z M109.7,35.1
			c-0.5-4-2.5-5.8-6.6-5.8s-6.3,1.9-7.2,5.8H109.7z"/>
		<path d="M124.9,21h13.5c0.7,1.3,0.8,1.8,1,3.3c3.3-2.9,6.5-4.1,11.1-4.1c7.4,0,13,3.6,14.4,9.3c0.6,2.4,0.7,3.5,0.7,8.7v21.8
			h-13.9V39.7c0-7.1-1.1-8.9-5.2-8.9c-4.4,0-6,2.5-6,9.1v20h-13.9V35.1C126.5,26,126.5,25.2,124.9,21z"/>
		<path d="M170,21h13.9v21.6c0,5.7,1.3,7.5,5.4,7.5c4.4,0,6.3-2.6,6.3-8.4V20.9h13.9v26.3v2.6c0,5.6,0.1,6.1,1.6,10h-13.5
			c-0.5-1.2-0.6-1.6-0.8-3.3c-2.9,2.8-6.6,4.1-11.5,4.1c-7,0-12.3-3-14.2-8c-1-2.5-1.2-4.9-1.2-9.8L170,21L170,21z"/>
		<path d="M254.1,43.5H226c0.1,4.8,3,7.5,8,7.5c3.5,0,5.6-1.1,7.1-3.5l12.5,0.4c-2.4,8.3-9.6,13-20.2,13c-13,0-21.3-7.9-21.3-20.3
			c0-12.3,8.7-20.6,21.6-20.6c12.5,0,20.4,8.1,20.4,20.8C254.1,41.4,254.1,42.3,254.1,43.5z M239.9,35.1c-0.5-4-2.5-5.8-6.6-5.8
			s-6.3,1.9-7.2,5.8H239.9z"/>
	</g>
</g>
<g>
	<path d="M305.9,0c-20.5,0-37.1,16.6-37.1,37.1s16.6,37.1,37.1,37.1c20.5,0,37.1-16.6,37.1-37.1S326.4,0,305.9,0z M314.3,58.8
		c-3,0.5-5.3,0.6-10.8,0.6h-13.1V15.3h13.8c8.1,0,11.7,0.7,14.8,2.6c2.8,1.8,4.6,5.2,4.6,8.8c0,4.6-2.1,7.5-6.5,8.9
		c6,1.5,9.1,5.1,9.1,10.7C326,52.8,321.4,57.7,314.3,58.8z"/>
	<path d="M312,28.1c0-3.3-1.6-4.2-7-4.2h-3.2v8.6h3.3C310.2,32.5,312,31.3,312,28.1z"/>
	<path d="M305.4,40.7h-3.6v10.1h4c6.5,0,8.3-1.1,8.3-5C314.2,41.7,312.2,40.7,305.4,40.7z"/>
</g>
</svg>
